<svg xmlns="http://www.w3.org/2000/svg" width="182" height="40" viewBox="0 0 182 40" fill="none"><g clip-path="url(#clip0_37_465)"><path d="M17.4059 16.4353C21.4477 11.5252 21.6529 5.01653 17.8641 1.89775C14.0753 -1.22103 7.72737 0.231117 3.68555 5.14122C-0.35627 10.0513 -0.561407 16.56 3.22736 19.6788C7.01614 22.7976 13.3641 21.3454 17.4059 16.4353Z" fill="#00101A"></path><path d="M18.5362 39.044C20.303 36.8976 17.71 31.8442 12.7445 27.7567C7.77897 23.6693 2.32135 22.0957 0.554548 24.2421C-1.21225 26.3885 1.38081 31.4419 6.34631 35.5294C11.3118 39.6168 16.7694 41.1903 18.5362 39.044Z" fill="#00101A"></path><path d="M37.4682 34.8609C41.51 29.9508 41.7151 23.4421 37.9263 20.3233C34.1376 17.2045 27.7896 18.6567 23.7478 23.5668C19.706 28.4769 19.5008 34.9855 23.2896 38.1043C27.0784 41.2231 33.4263 39.771 37.4682 34.8609Z" fill="#00101A"></path><path d="M40.5985 15.7623C42.3653 13.6159 39.7722 8.56242 34.8067 4.47499C29.8412 0.387558 24.3836 -1.18599 22.6168 0.96036C20.85 3.10671 23.4431 8.1602 28.4086 12.2476C33.3741 16.3351 38.8317 17.9086 40.5985 15.7623Z" fill="#00101A"></path></g><path fill-rule="evenodd" clip-rule="evenodd" d="M132.218 33.1718C123.598 33.1718 119.421 27.6568 121.67 18.6078C123.651 10.719 128.667 6.82813 135.752 6.82813C144.355 6.82813 148.549 12.3432 146.3 21.3921C144.319 29.281 139.304 33.1718 132.218 33.1718ZM132.861 27.0499C135.699 27.0499 137.412 24.6762 138.447 20.5176C139.572 16.0199 139.036 12.95 135.11 12.95C132.272 12.95 130.559 15.3238 129.523 19.4824C128.399 23.9801 128.917 27.0499 132.861 27.0499ZM64.6672 7.22078C69.0757 7.22078 71.5566 9.48748 70.3786 14.2708L69.4862 17.7868C68.451 21.874 65.8095 23.2662 61.9722 23.2662L59.1522 23.2662L56.7784 32.7792H50.1211L56.5107 7.22078L64.6672 7.22078ZM64.3452 13.5211C64.5415 12.7001 64.3987 12.2182 63.6312 12.2182L61.9186 12.2182L60.4016 18.3044H62.1677C62.8816 18.3044 63.2564 17.9475 63.4349 17.2157L64.3452 13.5211ZM85.702 12.6287L79.5266 12.6287L78.4021 17.18H84.1849L82.8463 22.5522H77.0457L75.8499 27.3712L82.0788 27.3712L80.7402 32.7792L67.8896 32.7792L74.2792 7.22078L87.0584 7.22078L85.702 12.6287ZM121.856 7.22078L114.003 7.22078L107.614 32.7792H115.467L121.856 7.22078ZM181.062 7.22078L172.637 7.22078L169.05 21.5528L162.071 7.22078L152.13 7.22078L145.741 32.7792H154.183L158.02 17.412L165.516 32.7792L174.672 32.7792L181.062 7.22078ZM102.212 7.12561C104.962 7.12561 107.026 7.90962 108.174 9.39811L108.178 9.4019C109.202 10.7313 109.457 12.591 108.913 14.7839C108.212 17.6852 106.459 19.3479 103.702 19.7304L102.914 19.8403L103.668 20.0978C106.182 20.9576 107.071 22.9725 106.302 26.0896L104.644 32.7822L97.1245 32.7822L98.7229 26.3093C99.0005 25.1882 98.933 24.3739 98.5053 23.8209C98.1113 23.3134 97.4209 23.0558 96.4492 23.0558H93.8378L93.804 23.1998L91.4253 32.7822H83.9062L90.2584 7.12561L102.212 7.12561ZM98.4865 17.9048C99.9235 17.9048 100.734 17.2155 101.117 15.6702H101.12C101.368 14.659 101.297 13.9242 100.907 13.4204C100.516 12.9167 99.8185 12.6705 98.7754 12.6705H96.4004L96.3666 12.8144L95.1585 17.67L95.0985 17.9048H98.4865Z" fill="#00101A"></path><defs><clipPath id="clip0_37_465"><rect width="41.1509" height="40" fill="white"></rect></clipPath></defs></svg>
